{
  "asset": {
    "version": "2.0",
    "generator": "THREE.GLTFExporter"
  },
  "scenes": [
    {
      "nodes": [
        0
      ]
    }
  ],
  "scene": 0,
  "nodes": [
    {
      "children": [
        13
      ],
      "matrix": [
        0.01,
        0,
        0,
        0,
        0,
        0.01,
        0,
        0,
        0,
        0,
        0.01,
        0,
        0,
        0,
        0,
        1
      ]
    },
    {
      "matrix": [
        0.19765660984560607,
        -2.93139943841585e-17,
        0.04284827550900959,
        0,
        2.4686796114882936e-16,
        0.20289549926631265,
        -3.6399342348825674e-16,
        0,
        -0.23784480247946713,
        -1.5614727431075353e-15,
        0.385843600443901,
        0,
        -21.967004289279714,
        47.211917478469566,
        38.672725319617754,
        0.9999999999999999
      ],
      "name": "pl",
      "extensions": {
        "KHR_lights_punctual": {
          "light": 0
        }
      }
    },
    {
      "matrix": [
        0.07382330770117229,
        0.09581206707331948,
        -0.15484278974911192,
        0,
        -0.14421319871135765,
        0.15165325347112288,
        0.05833555112051668,
        0,
        0.3487550580901197,
        0.2110948506263576,
        0.14383999327513408,
        0,
        40.4718169877345,
        12.668883261939154,
        -62.61861827018474,
        0.9999999999999999
      ],
      "name": "pl",
      "extensions": {
        "KHR_lights_punctual": {
          "light": 1
        }
      }
    },
    {
      "matrix": [
        99.98364323140892,
        -1.8086144349571385,
        2.730931818662393e-7,
        0,
        -1.3418110492947164,
        -74.17786491338143,
        0.000011200545987967568,
        0,
        0,
        -0.000015082970371882945,
        -99.88999999999885,
        0,
        2.0647495432727965,
        -24.11242924947817,
        45.19770666733219,
        1
      ],
      "name": "mountain",
      "mesh": 0
    },
    {
      "mesh": 0
    },
    {
      "matrix": [
        1,
        0,
        0,
        0,
        0,
        1,
        0,
        0,
        0,
        0,
        1,
        0,
        0,
        0,
        1,
        1
      ],
      "mesh": 0
    },
    {
      "matrix": [
        99.98364323140892,
        -1.8086144349571385,
        2.730931818662393e-7,
        0,
        -1.3418110492947164,
        -74.17786491338143,
        0.000011200545987967568,
        0,
        0,
        -0.000015082970371882945,
        -99.88999999999885,
        0,
        2.0647495432727965,
        -24.11242924947817,
        45.19770666733219,
        1
      ],
      "children": [
        4,
        5
      ]
    },
    {
      "matrix": [
        4.462901278183221,
        0,
        -1.6314338342434762,
        0,
        0,
        4.928645552099898,
        0,
        0,
        2.7510573501119424,
        0,
        7.525709658867846,
        0,
        81.17508557805851,
        -28.04606487225172,
        -239.20741650709326,
        1
      ],
      "name": "mountain2",
      "children": [
        1,
        2,
        3,
        6
      ]
    },
    {
      "matrix": [
        -1.5699999999999998,
        -3.499406386761023e-17,
        1.4470635307225085e-16,
        0,
        1.441677791933209e-16,
        -1.7430501486614988e-16,
        1.5700000000000018,
        0,
        5.2814710280019957e-17,
        1.570000000000002,
        8.71525074330749e-17,
        0,
        -9.135320869402354e-15,
        -104.29728669762459,
        8.121380606964644,
        0.9999999999999999
      ],
      "name": "Sphere",
      "mesh": 1
    },
    {
      "matrix": [
        0.06717655093660221,
        -0.9977411040799145,
        0.000015285777398584322,
        0,
        -0.9977410782497298,
        -0.06717655267571351,
        -0.00022703231724511427,
        0,
        -0.0006345917996306822,
        -3.414483438217286e-16,
        2.7888466016421383,
        0,
        -107.67660132645918,
        -4.577266907771198,
        -86.6516633176828,
        0.9999999999999999
      ],
      "name": "Point Light 2",
      "extensions": {
        "KHR_lights_punctual": {
          "light": 2
        }
      }
    },
    {
      "matrix": [
        1,
        0,
        0,
        0,
        0,
        1,
        0,
        0,
        0,
        0,
        1,
        0,
        -27.67389533535109,
        181.6001712190856,
        -211.12138060696464,
        1
      ],
      "name": "sphere",
      "children": [
        8,
        9
      ]
    },
    {
      "matrix": [
        0.41361609555733203,
        0,
        0.9104513855752585,
        0,
        -0.02446773756828256,
        0.9996388209547517,
        0.011115640264219176,
        0,
        -0.9101225496130714,
        -0.026874293296640865,
        0.41346670609083935,
        0,
        -459.5980708236233,
        92.94365729167484,
        132.47069562650168,
        1
      ],
      "camera": 0
    },
    {
      "matrix": [
        1,
        0,
        0,
        0,
        0,
        1,
        0,
        0,
        0,
        0,
        1,
        0,
        0,
        1,
        0,
        1
      ],
      "name": "Default Ambient Light"
    },
    {
      "name": "Scene 1",
      "children": [
        7,
        10,
        11,
        12
      ]
    }
  ],
  "extensions": {
    "KHR_lights_punctual": {
      "lights": [
        {
          "name": "pl",
          "color": [
            1,
            1,
            1
          ],
          "intensity": 10,
          "type": "point",
          "range": 1385
        },
        {
          "name": "pl",
          "color": [
            1,
            1,
            1
          ],
          "intensity": 6.103,
          "type": "point",
          "range": 974
        },
        {
          "name": "Point Light 2",
          "color": [
            0.9520631067961165,
            0.5131319737369213,
            0.2662332113911241
          ],
          "intensity": 10,
          "type": "point",
          "range": 518
        }
      ]
    }
  },
  "bufferViews": [
    {
      "buffer": 0,
      "byteOffset": 0,
      "byteLength": 375876,
      "target": 34962,
      "byteStride": 12
    },
    {
      "buffer": 0,
      "byteOffset": 375876,
      "byteLength": 375876,
      "target": 34962,
      "byteStride": 12
    },
    {
      "buffer": 0,
      "byteOffset": 751752,
      "byteLength": 250584,
      "target": 34962,
      "byteStride": 8
    },
    {
      "buffer": 0,
      "byteOffset": 1002336,
      "byteLength": 50700,
      "target": 34962,
      "byteStride": 12
    },
    {
      "buffer": 0,
      "byteOffset": 1053036,
      "byteLength": 50700,
      "target": 34962,
      "byteStride": 12
    },
    {
      "buffer": 0,
      "byteOffset": 1103736,
      "byteLength": 33800,
      "target": 34962,
      "byteStride": 8
    },
    {
      "buffer": 0,
      "byteOffset": 1137536,
      "byteLength": 48384,
      "target": 34963
    }
  ],
  "buffers": [
    {
      "byteLength": 1185920,
      "uri": "data:application/octet-stream;base64,"
    }
  ],
  "accessors": [
    {
      "bufferView": 0,
      "componentType": 5126,
      "count": 31323,
      "max": [
        0.9458725452423096,
        -0.1831439584493637,
        1.0419690608978271
      ],
      "min": [
        -0.9468519687652588,
        -1.183143973350525,
        -1.0423238277435303
      ],
      "type": "VEC3"
    },
    {
      "bufferView": 1,
      "componentType": 5126,
      "count": 31323,
      "max": [
        0.9758310317993164,
        0.060161322355270386,
        0.9716234803199768
      ],
      "min": [
        -0.9999988079071045,
        -0.999629020690918,
        -0.9958327412605286
      ],
      "type": "VEC3"
    },
    {
      "bufferView": 2,
      "componentType": 5126,
      "count": 31323,
      "max": [
        1.0001111030578613,
        0.9982996582984924
      ],
      "min": [
        0,
        -0.00041346735088154674
      ],
      "type": "VEC2"
    },
    {
      "bufferView": 3,
      "componentType": 5126,
      "count": 4225,
      "max": [
        50,
        50,
        50
      ],
      "min": [
        -50,
        -50,
        -50
      ],
      "type": "VEC3"
    },
    {
      "bufferView": 4,
      "componentType": 5126,
      "count": 4225,
      "max": [
        1,
        1,
        1
      ],
      "min": [
        -1,
        -1,
        -1
      ],
      "type": "VEC3"
    },
    {
      "bufferView": 5,
      "componentType": 5126,
      "count": 4225,
      "max": [
        1.0078125,
        1
      ],
      "min": [
        -0.0078125,
        0
      ],
      "type": "VEC2"
    },
    {
      "bufferView": 6,
      "componentType": 5123,
      "count": 24192,
      "max": [
        4224
      ],
      "min": [
        0
      ],
      "type": "SCALAR"
    }
  ],
  "meshes": [
    {
      "primitives": [
        {
          "mode": 4,
          "attributes": {
            "POSITION": 0,
            "NORMAL": 1,
            "TEXCOORD_0": 2
          },
          "extras": {
            "parameters": {
              "width": 1.8927244999232762,
              "height": 0.9999999999999996,
              "depth": 2.084292930714969,
              "subdivisions": 0
            },
            "type": "NonParametricGeometry"
          }
        }
      ]
    },
    {
      "primitives": [
        {
          "mode": 4,
          "attributes": {
            "POSITION": 3,
            "NORMAL": 4,
            "TEXCOORD_0": 5
          },
          "extras": {
            "parameters": {
              "width": 100,
              "widthSegments": 64,
              "heightSegments": 64,
              "phiStart": 0,
              "phiLength": 6.283185307179586,
              "thetaStart": 0,
              "thetaLength": 180,
              "height": 100,
              "depth": 100,
              "type": "SphereGeometry"
            },
            "type": "SphereGeometry"
          },
          "indices": 6
        }
      ]
    }
  ],
  "cameras": [
    {
      "type": "perspective",
      "perspective": {
        "aspectRatio": 2.0672947510094213,
        "yfov": 0.7853981633974483,
        "zfar": 100000,
        "znear": 70
      }
    }
  ],
  "extensionsUsed": [
    "KHR_lights_punctual"
  ]
}